# xmcd
#
# Track frame offsets:
#	175
#	18475
#	36475
#	59800
#	81925
#	100450
#	122275
#	136450
#	159100
#	178975
#	198475
#	232450
#
# Disc length: 3335 seconds
#
# Revision: 1
# Processed by: cddbd v1.5.1PL2 Copyright (c) Steve Scherf et al.
# Submitted via: audiograbber 1.83.01
#
DISCID=b00d050c
DTITLE=Juke and the Blue Joint - Rough and ready!
DYEAR=1900
DGENRE=Blues
TTITLE0=Too Many Drivers
TTITLE1=Georgia Swing
TTITLE2=The Blues
TTITLE3=Self Preservation
TTITLE4=Can't Get Satisfied
TTITLE5=Born Under a Bad Sign
TTITLE6=Fanne Mae
TTITLE7=I've Got a Right (To Love My Woman)
TTITLE8=Drivin' Wheel
TTITLE9=Step Right In
TTITLE10=Blue and Lonesome
TTITLE11=A Ride With Your Daddy
EXTD=featuring Andy Just\nAll arrangements: Juke and the Blue Joint
EXTT0=
EXTT1=
EXTT2=
EXTT3=
EXTT4=
EXTT5=
EXTT6=
EXTT7=
EXTT8=
EXTT9=
EXTT10=
EXTT11=
PLAYORDER=
